<svg width="24" height="24" viewBox="0 0 24 24" fill="none" xmlns="http://www.w3.org/2000/svg">
<path d="M21.3077 0.884766H2.69231C1.75767 0.884766 1 1.64244 1 2.57707V11.0386C1 11.9732 1.75767 12.7309 2.69231 12.7309H21.3077C22.2423 12.7309 23 11.9732 23 11.0386V2.57707C23 1.64244 22.2423 0.884766 21.3077 0.884766Z" stroke="#000000" stroke-width="1.14286" stroke-linecap="round" stroke-linejoin="round"/>
<path d="M18.7693 12.731V9.34636C18.7693 8.89753 18.591 8.46709 18.2736 8.14972C17.9563 7.83235 17.5258 7.65405 17.077 7.65405H6.92314C6.47431 7.65405 6.04387 7.83235 5.7265 8.14972C5.40913 8.46709 5.23083 8.89753 5.23083 9.34636V12.731" stroke="#000000" stroke-width="1.14286" stroke-linecap="round" stroke-linejoin="round"/>
<path d="M5.2308 17.8076L4.38464 22.8845" stroke="#000000" stroke-width="1.14286" stroke-linecap="round" stroke-linejoin="round"/>
<path d="M12 17.8076V22.8845" stroke="#000000" stroke-width="1.14286" stroke-linecap="round" stroke-linejoin="round"/>
<path d="M18.7693 17.8076L19.6154 22.8845" stroke="#000000" stroke-width="1.14286" stroke-linecap="round" stroke-linejoin="round"/>
</svg>
