<svg width="17" height="17" viewBox="0 0 17 17" fill="none" xmlns="http://www.w3.org/2000/svg">
<path d="M2.14286 3.28571C1.83975 3.28571 1.54906 3.40611 1.33474 3.62044C1.12041 3.83477 1 4.12546 1 4.42856V14.7143C1 15.0174 1.12041 15.3081 1.33474 15.5224C1.54906 15.7367 1.83975 15.8571 2.14286 15.8571H14.7143C15.0174 15.8571 15.3081 15.7367 15.5224 15.5224C15.7367 15.3081 15.8571 15.0174 15.8571 14.7143V4.42856C15.8571 4.12546 15.7367 3.83477 15.5224 3.62044C15.3081 3.40611 15.0174 3.28571 14.7143 3.28571H12.4286" stroke="white" stroke-width="1.14286" stroke-linecap="round" stroke-linejoin="round"/>
<path d="M4.42847 1V5.57143" stroke="white" stroke-width="1.14286" stroke-linecap="round" stroke-linejoin="round"/>
<path d="M12.4285 1V5.57143" stroke="white" stroke-width="1.14286" stroke-linecap="round" stroke-linejoin="round"/>
<path d="M4.42847 3.28571H10.1428" stroke="white" stroke-width="1.14286" stroke-linecap="round" stroke-linejoin="round"/>
<path d="M5 10.7143L7.28571 12.4285L11.2857 7.85712" stroke="white" stroke-width="1.14286" stroke-linecap="round" stroke-linejoin="round"/>
</svg>
