<svg width="30" height="30" viewBox="0 0 30 30" fill="none" xmlns="http://www.w3.org/2000/svg">
<path d="M1.5 13.8133C1.34845 13.8133 1.2031 13.8735 1.09594 13.9807C0.988775 14.0879 0.928571 14.2332 0.928571 14.3848C0.928571 18.1167 2.41109 21.6959 5.05 24.3348C6.35665 25.6414 7.90787 26.6779 9.6151 27.3851C11.3223 28.0922 13.1521 28.4562 15 28.4562C18.732 28.4562 22.3111 26.9737 24.95 24.3348C27.5889 21.6959 29.0714 18.1167 29.0714 14.3848C29.0714 14.0692 28.8156 13.8133 28.5 13.8133H1.5Z" stroke="white" stroke-width="1.14286" stroke-linecap="round" stroke-linejoin="round"/>
<path d="M16.0386 10.2309L22.2693 0.884766" stroke="white" stroke-width="1.14286" stroke-linecap="round" stroke-linejoin="round"/>
<path d="M19.1538 11.2693L26.423 5.03857" stroke="white" stroke-width="1.14286" stroke-linecap="round" stroke-linejoin="round"/>
</svg>
