<svg width="22" height="20" viewBox="0 0 22 20" fill="none" xmlns="http://www.w3.org/2000/svg">
<path d="M15.5617 0.884888H6.56176C5.73334 0.884888 5.06177 1.55646 5.06177 2.38488V9.88486C5.06177 10.7133 5.73334 11.3849 6.56176 11.3849H15.5617C16.3902 11.3849 17.0617 10.7133 17.0617 9.88486V2.38488C17.0617 1.55646 16.3902 0.884888 15.5617 0.884888Z" stroke="#000000" stroke-width="1.14286" stroke-linecap="round" stroke-linejoin="round"/>
<path d="M5.06176 5.38477H2.81176C2.41394 5.38477 2.03241 5.5428 1.75111 5.8241C1.4698 6.10541 1.31177 6.48694 1.31177 6.88476V13.6347C1.31177 14.0326 1.4698 14.4141 1.75111 14.6954C2.03241 14.9767 2.41394 15.1347 2.81176 15.1347H19.3117C19.7095 15.1347 20.0911 14.9767 20.3724 14.6954C20.6537 14.4141 20.8117 14.0326 20.8117 13.6347V6.88476C20.8117 6.48694 20.6537 6.10541 20.3724 5.8241C20.0911 5.5428 19.7095 5.38477 19.3117 5.38477H17.0617" stroke="#000000" stroke-width="1.14286" stroke-linecap="round" stroke-linejoin="round"/>
<path d="M6.56177 15.135L5.81177 18.885" stroke="#000000" stroke-width="1.14286" stroke-linecap="round" stroke-linejoin="round"/>
<path d="M15.5618 15.135L16.3118 18.885" stroke="#000000" stroke-width="1.14286" stroke-linecap="round" stroke-linejoin="round"/>
</svg>
