<svg width="17" height="17" viewBox="0 0 17 17" fill="none" xmlns="http://www.w3.org/2000/svg">
<path d="M12.4287 1H14.7144C15.0175 1 15.3082 1.12041 15.5225 1.33474C15.7369 1.54906 15.8573 1.83975 15.8573 2.14286V4.42857" stroke="white" stroke-width="1.14286" stroke-linecap="round" stroke-linejoin="round"/>
<path d="M1 4.42857V2.14286C1 1.83975 1.12041 1.54906 1.33474 1.33474C1.54906 1.12041 1.83975 1 2.14286 1H4.42857" stroke="white" stroke-width="1.14286" stroke-linecap="round" stroke-linejoin="round"/>
<path d="M12.4287 15.8572H14.7144C15.0175 15.8572 15.3082 15.7368 15.5225 15.5224C15.7369 15.3081 15.8573 15.0174 15.8573 14.7143V12.4286" stroke="white" stroke-width="1.14286" stroke-linecap="round" stroke-linejoin="round"/>
<path d="M1 12.4286V14.7143C1 15.0174 1.12041 15.3081 1.33474 15.5224C1.54906 15.7368 1.83975 15.8572 2.14286 15.8572H4.42857" stroke="white" stroke-width="1.14286" stroke-linecap="round" stroke-linejoin="round"/>
</svg>
