<svg width="26" height="29" viewBox="0 0 26 29" fill="none" xmlns="http://www.w3.org/2000/svg">
<g clip-path="url(#clip0_345_17920)">
<path d="M24.3083 0C24.3872 0.0279813 24.4653 0.0574752 24.545 0.0824315C25.5055 0.391739 26.0905 1.35445 25.8416 2.32926C25.3219 4.36055 24.768 6.38277 24.2248 8.40801C23.3553 11.6501 22.4828 14.8914 21.6118 18.1327C21.5929 18.2037 21.583 18.2771 21.5648 18.3709C22.6072 18.6484 23.6323 18.9305 24.6626 19.1929C25.3287 19.3623 25.8272 19.7125 25.9675 20.4082C26.0229 20.6827 26.0093 21.0019 25.9235 21.2673C25.6276 22.1862 25.5503 23.1224 25.5487 24.0806C25.5465 25.4766 25.4979 26.8719 25.4607 28.2679C25.4463 28.8185 25.265 28.9773 24.7104 28.9841C20.8251 29.034 17.0862 28.3201 13.4914 26.8515C13.4224 26.8228 13.3503 26.8001 13.2608 26.7668C13.2198 26.8522 13.1781 26.9332 13.1417 27.0163C12.386 28.7361 10.3952 29.4749 8.70173 28.6529C8.49537 28.5531 8.34287 28.5508 8.13195 28.6521C7.15019 29.1263 6.1616 29.1021 5.18894 28.6151C5.04782 28.5447 4.94767 28.5372 4.80048 28.6098C3.64725 29.1785 2.5092 29.1354 1.44246 28.4162C0.373449 27.6947 -0.0969472 26.6473 0.0168583 25.3738C0.100316 24.439 0.560848 23.6843 1.30134 23.0975C1.38632 23.0301 1.46598 22.8887 1.46143 22.7851C1.40984 21.436 1.95155 20.3855 3.11692 19.7208C4.27167 19.0621 5.44766 19.1309 6.57812 19.8433C6.60999 19.8637 6.64185 19.8841 6.67448 19.903C6.68207 19.9076 6.69269 19.9068 6.70103 19.9091C8.50523 18.898 9.553 19.0447 11.3215 20.5693C11.8079 19.7306 12.3207 18.9108 12.4952 17.9375C12.5233 17.781 12.5681 17.626 12.6189 17.4747C12.8685 16.7359 13.6318 16.2882 14.3943 16.4734C15.4383 16.7275 16.4739 17.0157 17.5126 17.2887C17.6028 17.3121 17.6946 17.3333 17.8092 17.3613C18.049 16.4697 18.2842 15.5917 18.5201 14.7136C19.6984 10.3289 20.8774 5.94414 22.0534 1.55864C22.2605 0.786502 22.7195 0.263932 23.5071 0.0521814C23.5306 0.0461314 23.5488 0.0189063 23.5693 0.00226876C23.8159 0 24.0624 0 24.3083 0ZM10.0841 27.8505C10.9695 27.8565 11.7684 27.3204 12.1007 26.5369C12.1804 26.3493 12.15 26.2654 11.9634 26.1693C11.2001 25.7769 10.443 25.3707 9.69184 24.9563C9.27304 24.7249 9.20475 24.4368 9.43768 24.0118C9.80868 23.3342 10.1911 22.6626 10.5484 21.9782C10.6061 21.8685 10.6068 21.6795 10.5507 21.5691C9.95284 20.3931 8.38308 20.0634 7.35124 20.8847C6.70559 21.3982 6.70559 21.3982 6.04627 20.8771C5.3604 20.3356 4.3794 20.2789 3.62753 20.7387C2.8582 21.2083 2.46747 22.103 2.65108 22.9742C2.75198 23.4552 2.67839 23.6041 2.25731 23.8499C1.49709 24.2946 1.10256 24.9662 1.15264 25.8396C1.19968 26.6632 1.62152 27.2856 2.38098 27.638C3.13816 27.9896 3.86804 27.9019 4.55087 27.4232C4.90822 27.1721 5.07286 27.1691 5.4211 27.4141C6.24809 27.9942 7.15701 27.9957 7.97945 27.4187C8.333 27.1706 8.50447 27.1661 8.84892 27.4202C9.226 27.6985 9.65163 27.8271 10.0841 27.8505ZM24.3234 27.8021C24.3568 26.2934 24.3841 24.7748 24.4297 23.2578C24.438 22.9893 24.3682 22.8751 24.0928 22.8033C21.7939 22.2043 19.5004 21.5865 17.2053 20.9731C15.8222 20.6041 14.439 20.2335 13.0362 19.8584C12.2396 21.3051 11.4475 22.7435 10.6433 24.2038C11.2608 24.5283 11.8428 24.8346 12.4376 25.1469C12.493 25.0486 12.5362 24.9775 12.5742 24.9041C12.9383 24.2016 13.2972 23.4968 13.6682 22.798C13.8412 22.472 14.1598 22.3707 14.4565 22.5227C14.7494 22.6724 14.8412 22.9901 14.6856 23.3228C14.6462 23.4083 14.5984 23.4892 14.5551 23.5731C14.2069 24.2492 13.8586 24.9261 13.499 25.6248C14.0347 25.8336 14.5475 26.034 15.0756 26.2397C15.3654 25.3881 15.637 24.5774 15.9178 23.7705C16.0392 23.4204 16.3419 23.2563 16.6446 23.3538C16.9739 23.4605 17.118 23.7637 17.0118 24.1282C16.9936 24.191 16.9678 24.2522 16.9466 24.315C16.6894 25.0682 16.4329 25.8222 16.1628 26.614C16.8965 26.8099 17.6021 26.999 18.3228 27.1918C18.3547 27.0617 18.3828 26.9634 18.4025 26.8628C18.5527 26.1164 18.6961 25.3677 18.8524 24.6228C18.9313 24.2477 19.2174 24.0518 19.5459 24.126C19.8661 24.1978 20.0436 24.5101 19.97 24.8762C19.907 25.1892 19.8387 25.5023 19.7773 25.8154C19.6749 26.338 19.5762 26.8613 19.4692 27.4172C20.0352 27.4988 20.5701 27.5767 21.1209 27.6569C21.1316 27.5556 21.1399 27.5004 21.1422 27.4459C21.1794 26.6828 21.2128 25.9198 21.2545 25.1575C21.2788 24.7121 21.52 24.4769 21.9024 24.5086C22.24 24.5366 22.4396 24.8172 22.4153 25.2248C22.3842 25.7519 22.3485 26.279 22.3273 26.8061C22.3144 27.1215 22.325 27.4383 22.325 27.8021C22.9858 27.8021 23.6338 27.8021 24.3234 27.8021ZM19.574 15.2415C19.9905 15.3565 20.3615 15.4593 20.7332 15.5606C21.0898 15.6574 21.0891 15.6559 21.1832 15.3073C22.0124 12.2225 22.8424 9.13779 23.6702 6.05229C24.0253 4.72733 24.3811 3.40238 24.7225 2.07364C24.8265 1.66754 24.5829 1.29848 24.1823 1.17824C23.8037 1.0648 23.4054 1.24782 23.2461 1.61384C23.2127 1.69098 23.1914 1.77417 23.1694 1.85584C22.1505 5.63937 21.1316 9.42366 20.1141 13.2072C19.9336 13.8757 19.7583 14.5465 19.574 15.2415ZM13.4565 18.7717C13.5483 18.8004 13.6272 18.8292 13.7084 18.8503C17.1317 19.7646 20.5557 20.6782 23.979 21.5933C24.6072 21.7612 24.6064 21.7642 24.7703 21.1501C24.7802 21.1138 24.7953 21.079 24.8052 21.0427C24.9334 20.5685 24.8636 20.4422 24.3841 20.3137C21.9259 19.6542 19.4677 18.9978 17.0088 18.3406C16.1165 18.1024 15.2243 17.8634 14.3313 17.6267C13.9269 17.5193 13.7782 17.604 13.6659 18.0018C13.5961 18.2537 13.5286 18.507 13.4565 18.7717Z" fill="white"/>
<path d="M4.6744 16.3275C4.68198 17.269 3.921 18.0449 2.98097 18.0532C2.03866 18.0615 1.25644 17.2985 1.25113 16.3653C1.24582 15.4056 2.00755 14.6259 2.95745 14.6214C3.89597 14.6168 4.66681 15.3829 4.6744 16.3275ZM2.96731 15.7845C2.64486 15.7822 2.38463 16.0363 2.3907 16.3479C2.39677 16.6458 2.65549 16.8992 2.95669 16.9022C3.27231 16.906 3.53027 16.6466 3.52572 16.3297C3.52117 16.0197 3.28293 15.7867 2.96731 15.7845Z" fill="white"/>
<path d="M8.97168 12.6643C8.97168 11.719 9.73114 10.9567 10.6757 10.9529C11.6188 10.9491 12.3858 11.7099 12.3904 12.6545C12.3957 13.6149 11.6317 14.3795 10.6712 14.3772C9.72735 14.3734 8.97168 13.6126 8.97168 12.6643ZM10.6833 12.1084C10.3601 12.1069 10.1037 12.3625 10.1105 12.6771C10.1173 12.9728 10.3813 13.2322 10.6772 13.2338C10.986 13.2353 11.2539 12.963 11.247 12.6545C11.241 12.3459 10.9967 12.11 10.6833 12.1084Z" fill="white"/>
<path d="M9.54599 17.5012C9.21444 17.5049 8.97317 17.2682 8.97241 16.9393C8.97241 16.6171 9.22582 16.3615 9.54296 16.3653C9.8434 16.3691 10.0998 16.6216 10.1074 16.9226C10.1165 17.2448 9.87072 17.4974 9.54599 17.5012Z" fill="white"/>
<path d="M7.26991 14.4838C7.2737 14.8082 7.02788 15.057 6.70316 15.057C6.37767 15.057 6.13261 14.8105 6.13565 14.4853C6.13792 14.1729 6.3754 13.9332 6.68798 13.9264C7.01423 13.9196 7.26612 14.1608 7.26991 14.4838Z" fill="white"/>
</g>
<defs>
<clipPath id="clip0_345_17920">
<rect width="26" height="29" fill="white"/>
</clipPath>
</defs>
</svg>
