<svg width="27" height="28" viewBox="0 0 27 28" fill="none" xmlns="http://www.w3.org/2000/svg">
<mask id="path-1-outside-1_150_3071" maskUnits="userSpaceOnUse" x="-0.5" y="-0.115234" width="28" height="28" fill="black">
<rect fill="white" x="-0.5" y="-0.115234" width="28" height="28"/>
<path d="M5.19231 14.8078H7.03846C7.52809 14.8078 7.99767 15.0023 8.34389 15.3486C8.69011 15.6948 8.88462 16.1644 8.88462 16.654V24.0386C8.88462 24.5282 8.69011 24.9978 8.34389 25.344C7.99767 25.6903 7.52809 25.8848 7.03846 25.8848H3.34615C2.85652 25.8848 2.38695 25.6903 2.04073 25.344C1.6945 24.9978 1.5 24.5282 1.5 24.0386V13.8848C1.5 10.7022 2.76428 7.64992 5.01472 5.39948C7.26516 3.14905 10.3174 1.88477 13.5 1.88477C16.6826 1.88477 19.7348 3.14905 21.9853 5.39948C24.2357 7.64992 25.5 10.7022 25.5 13.8848V24.0386C25.5 24.5282 25.3055 24.9978 24.9593 25.344C24.6131 25.6903 24.1435 25.8848 23.6538 25.8848H19.9615C19.4719 25.8848 19.0023 25.6903 18.6561 25.344C18.3099 24.9978 18.1154 24.5282 18.1154 24.0386V16.654C18.1154 16.1644 18.3099 15.6948 18.6561 15.3486C19.0023 15.0023 19.4719 14.8078 19.9615 14.8078H21.8077"/>
</mask>
<path d="M5.19231 13.665C4.56113 13.665 4.04945 14.1767 4.04945 14.8078C4.04945 15.439 4.56113 15.9507 5.19231 15.9507V13.665ZM1.5 24.0386H0.357143H1.5ZM1.5 13.8848H0.357143H1.5ZM13.5 1.88477V0.741908V1.88477ZM25.5 13.8848H26.6429H25.5ZM19.9615 14.8078V15.9507V14.8078ZM21.8077 15.9507C22.4389 15.9507 22.9506 15.439 22.9506 14.8078C22.9506 14.1767 22.4389 13.665 21.8077 13.665V15.9507ZM5.19231 15.9507H7.03846V13.665H5.19231V15.9507ZM7.03846 15.9507C7.22499 15.9507 7.40387 16.0248 7.53577 16.1567L9.15201 14.5404C8.59146 13.9799 7.8312 13.665 7.03846 13.665V15.9507ZM7.53577 16.1567C7.66766 16.2886 7.74176 16.4675 7.74176 16.654H10.0275C10.0275 15.8613 9.71256 15.101 9.15201 14.5404L7.53577 16.1567ZM7.74176 16.654V24.0386H10.0275V16.654H7.74176ZM7.74176 24.0386C7.74176 24.2251 7.66766 24.404 7.53577 24.5359L9.15201 26.1522C9.71256 25.5916 10.0275 24.8313 10.0275 24.0386H7.74176ZM7.53577 24.5359C7.40387 24.6678 7.22499 24.7419 7.03846 24.7419V27.0276C7.8312 27.0276 8.59146 26.7127 9.15201 26.1522L7.53577 24.5359ZM7.03846 24.7419H3.34615V27.0276H7.03846V24.7419ZM3.34615 24.7419C3.15963 24.7419 2.98074 24.6678 2.84885 24.5359L1.2326 26.1522C1.79315 26.7127 2.55342 27.0276 3.34615 27.0276V24.7419ZM2.84885 24.5359C2.71695 24.404 2.64286 24.2251 2.64286 24.0386H0.357143C0.357143 24.8313 0.672056 25.5916 1.2326 26.1522L2.84885 24.5359ZM2.64286 24.0386V13.8848H0.357143V24.0386H2.64286ZM2.64286 13.8848C2.64286 11.0053 3.78673 8.24372 5.82284 6.20761L4.2066 4.59136C1.74183 7.05613 0.357143 10.3991 0.357143 13.8848H2.64286ZM5.82284 6.20761C7.85895 4.1715 10.6205 3.02762 13.5 3.02762V0.741908C10.0143 0.741908 6.67136 2.1266 4.2066 4.59136L5.82284 6.20761ZM13.5 3.02762C16.3795 3.02762 19.1411 4.1715 21.1772 6.20761L22.7934 4.59136C20.3286 2.1266 16.9857 0.741908 13.5 0.741908V3.02762ZM21.1772 6.20761C23.2133 8.24372 24.3571 11.0053 24.3571 13.8848H26.6429C26.6429 10.3991 25.2582 7.05613 22.7934 4.59136L21.1772 6.20761ZM24.3571 13.8848V24.0386H26.6429V13.8848H24.3571ZM24.3571 24.0386C24.3571 24.2251 24.283 24.404 24.1512 24.5359L25.7674 26.1522C26.3279 25.5916 26.6429 24.8313 26.6429 24.0386H24.3571ZM24.1512 24.5359C24.0193 24.6678 23.8404 24.7419 23.6538 24.7419V27.0276C24.4466 27.0276 25.2068 26.7127 25.7674 26.1522L24.1512 24.5359ZM23.6538 24.7419H19.9615V27.0276H23.6538V24.7419ZM19.9615 24.7419C19.775 24.7419 19.5961 24.6678 19.4642 24.5359L17.848 26.1522C18.4085 26.7127 19.1688 27.0276 19.9615 27.0276V24.7419ZM19.4642 24.5359C19.3323 24.404 19.2582 24.2251 19.2582 24.0386H16.9725C16.9725 24.8313 17.2874 25.5916 17.848 26.1522L19.4642 24.5359ZM19.2582 24.0386V16.654H16.9725V24.0386H19.2582ZM19.2582 16.654C19.2582 16.4675 19.3323 16.2886 19.4642 16.1567L17.848 14.5404C17.2874 15.101 16.9725 15.8613 16.9725 16.654H19.2582ZM19.4642 16.1567C19.5961 16.0248 19.775 15.9507 19.9615 15.9507V13.665C19.1688 13.665 18.4085 13.9799 17.848 14.5404L19.4642 16.1567ZM19.9615 15.9507H21.8077V13.665H19.9615V15.9507Z" fill="white" mask="url(#path-1-outside-1_150_3071)"/>
</svg>
