<svg width="27" height="27" viewBox="0 0 27 27" fill="none" xmlns="http://www.w3.org/2000/svg">
<path d="M13.5 25.8848C20.4036 25.8848 26 20.2883 26 13.3848C26 6.48121 20.4036 0.884766 13.5 0.884766C6.59644 0.884766 1 6.48121 1 13.3848C1 20.2883 6.59644 25.8848 13.5 25.8848Z" stroke="#493DDA" stroke-width="1.14286" stroke-linecap="round" stroke-linejoin="round"/>
<path d="M13.5 0.884766V25.8848" stroke="#493DDA" stroke-width="1.14286" stroke-linecap="round" stroke-linejoin="round"/>
<path d="M4.0769 21.5964C5.48601 20.7386 6.65071 19.5326 7.45901 18.0945C8.26731 16.6564 8.69201 15.0346 8.69229 13.3849C8.69201 11.7352 8.26731 10.1133 7.45901 8.67522C6.65071 7.23713 5.48601 6.03118 4.0769 5.17334" stroke="#493DDA" stroke-width="1.14286" stroke-linecap="round" stroke-linejoin="round"/>
<path d="M22.9231 5.17334C21.5144 6.0315 20.3503 7.23759 19.5424 8.67566C18.7346 10.1137 18.3103 11.7354 18.3103 13.3849C18.3103 15.0343 18.7346 16.656 19.5424 18.0941C20.3503 19.5322 21.5144 20.7383 22.9231 21.5964" stroke="#493DDA" stroke-width="1.14286" stroke-linecap="round" stroke-linejoin="round"/>
</svg>
