<svg width="31" height="29" viewBox="0 0 31 29" fill="none" xmlns="http://www.w3.org/2000/svg">
<path d="M15.179 2.5986C19.2318 2.5986 19.7102 2.61217 21.3099 2.68341C22.7882 2.74787 23.5916 2.98194 24.1272 3.1787C24.8342 3.43992 25.3412 3.75202 25.8733 4.2575C26.4053 4.76297 26.7338 5.2413 27.0087 5.91639C27.2158 6.42526 27.4622 7.18855 27.5301 8.59302C27.6015 10.1128 27.6193 10.5708 27.6193 14.4178C27.6193 18.2648 27.6051 18.7228 27.5301 20.2426C27.4622 21.6471 27.2158 22.4104 27.0087 22.9192C26.7338 23.5909 26.4053 24.0727 25.8733 24.5781C25.3412 25.0836 24.8378 25.3957 24.1272 25.6569C23.5916 25.8537 22.7882 26.0878 21.3099 26.1522C19.7102 26.2201 19.2318 26.237 15.179 26.237C11.1263 26.237 10.6478 26.2235 9.04814 26.1522C7.56987 26.0878 6.76646 25.8537 6.23085 25.6569C5.52385 25.3957 5.01683 25.0836 4.4848 24.5781C3.95276 24.0727 3.62426 23.5943 3.34932 22.9192C3.14222 22.4104 2.89583 21.6471 2.82799 20.2426C2.75657 18.7228 2.73872 18.2648 2.73872 14.4178C2.73872 10.5708 2.753 10.1128 2.82799 8.59302C2.89583 7.18855 3.14222 6.42526 3.34932 5.91639C3.62426 5.24469 3.95276 4.76297 4.4848 4.2575C5.01683 3.75202 5.52028 3.43992 6.23085 3.1787C6.76646 2.98194 7.56987 2.74787 9.04814 2.68341C10.6478 2.61556 11.1298 2.5986 15.179 2.5986M15.179 0C11.0584 0 10.5407 0.0169622 8.92317 0.0882032C7.30922 0.159444 6.20587 0.400306 5.23821 0.759903C4.24198 1.12968 3.39572 1.62158 2.54946 2.42219C1.70678 3.22281 1.18547 4.02681 0.799833 4.97669C0.42491 5.89264 0.167804 6.9409 0.0928198 8.47767C0.0178352 10.0144 0 10.5063 0 14.4212C0 18.3361 0.0178352 18.828 0.0928198 20.3647C0.167804 21.8981 0.421339 22.9464 0.799833 23.8657C1.18904 24.8122 1.70678 25.6162 2.54946 26.4202C3.39215 27.2208 4.23841 27.7161 5.23821 28.0825C6.2023 28.4387 7.30564 28.683 8.92317 28.7542C10.5407 28.8254 11.0584 28.8424 15.179 28.8424C19.2996 28.8424 19.8174 28.8254 21.4349 28.7542C23.0488 28.683 24.1522 28.4421 25.1199 28.0825C26.1161 27.7127 26.9623 27.2208 27.8086 26.4202C28.6513 25.6196 29.1726 24.8156 29.5582 23.8657C29.9331 22.9498 30.1902 21.9015 30.2652 20.3647C30.3402 18.828 30.3581 18.3361 30.3581 14.4212C30.3581 10.5063 30.3402 10.0144 30.2652 8.47767C30.1902 6.9443 29.9367 5.89604 29.5582 4.97669C29.169 4.0302 28.6513 3.2262 27.8086 2.42219C26.9659 1.62158 26.1196 1.12629 25.1199 0.759903C24.1558 0.403699 23.0524 0.159444 21.4349 0.0882032C19.8174 0.0169622 19.2996 0 15.179 0V0Z" fill="#000000"/>
<path d="M15.1789 7.01221C10.8762 7.01221 7.3877 10.3266 7.3877 14.4145C7.3877 18.5024 10.8762 21.8168 15.1789 21.8168C19.4816 21.8168 22.9702 18.5024 22.9702 14.4145C22.9702 10.3266 19.4816 7.01221 15.1789 7.01221ZM15.1789 19.2215C12.3867 19.2215 10.1193 17.0708 10.1193 14.4145C10.1193 11.7582 12.3831 9.60741 15.1789 9.60741C17.9748 9.60741 20.2386 11.7582 20.2386 14.4145C20.2386 17.0708 17.9748 19.2215 15.1789 19.2215Z" fill="#000000"/>
<path d="M23.2805 8.45002C24.2863 8.45002 25.1016 7.67541 25.1016 6.71988C25.1016 5.76435 24.2863 4.98975 23.2805 4.98975C22.2748 4.98975 21.4595 5.76435 21.4595 6.71988C21.4595 7.67541 22.2748 8.45002 23.2805 8.45002Z" fill="#000000"/>
</svg>
