<?xml version="1.0" ?><!-- Uploaded to: SVG Repo, www.svgrepo.com, Generator: SVG Repo Mixer Tools -->
<svg fill="#000000" width="800px" height="800px" viewBox="0 0 24 24" id="Layer_2" version="1.1" xml:space="preserve" xmlns="http://www.w3.org/2000/svg" xmlns:xlink="http://www.w3.org/1999/xlink"><path d="M16.189,9.715c-0.332-1.597-1.569-2.87-3.152-3.244c-1.313-0.311-2.66-0.018-3.695,0.802  c-1.034,0.819-1.627,2.044-1.627,3.361c0,1.111,0.422,2.162,1.187,2.959c0.376,0.392,0.823,1.035,0.823,1.874v0.128  c0,0.276,0.224,0.5,0.5,0.5h3.551c0.276,0,0.5-0.224,0.5-0.5v-0.12c0-0.843,0.45-1.491,0.827-1.886  C16.09,12.558,16.486,11.146,16.189,9.715z M14.38,12.899c-0.614,0.642-0.99,1.411-1.082,2.197h-2.595  c-0.091-0.786-0.466-1.554-1.08-2.194c-0.586-0.611-0.908-1.416-0.908-2.268c0-1.01,0.455-1.949,1.248-2.577  c0.794-0.628,1.828-0.853,2.844-0.612c1.207,0.285,2.15,1.256,2.404,2.474C15.439,11.021,15.137,12.108,14.38,12.899z"/><path d="M13.78,16.35H10.22c-0.276,0-0.5,0.224-0.5,0.5v0.471c0,0.485,0.2,0.923,0.54,1.25v0.73c0,0.938,0.763,1.7,1.78,1.7  c0.938,0,1.7-0.763,1.7-1.7v-0.73c0.34-0.328,0.54-0.765,0.54-1.249V16.85C14.28,16.573,14.057,16.35,13.78,16.35z M13.279,17.35  c-0.009,0.237-0.126,0.451-0.326,0.591c-0.119,0.084-0.27,0.13-0.423,0.13H11.47c-0.153,0-0.304-0.046-0.425-0.131  c-0.198-0.139-0.315-0.353-0.324-0.59H13.279z M12.74,19.3c0,0.386-0.314,0.7-0.78,0.7c-0.386,0-0.7-0.314-0.7-0.7v-0.242  c0.069,0.009,0.14,0.013,0.21,0.013h1.061c0.07,0,0.141-0.004,0.21-0.013V19.3z"/><path d="M7.22,10.583c0-0.276-0.224-0.5-0.5-0.5H4.917c-0.276,0-0.5,0.224-0.5,0.5s0.224,0.5,0.5,0.5H6.72  C6.996,11.083,7.22,10.859,7.22,10.583z"/><path d="M19.083,10.083H17.28c-0.276,0-0.5,0.224-0.5,0.5s0.224,0.5,0.5,0.5h1.803c0.276,0,0.5-0.224,0.5-0.5  S19.359,10.083,19.083,10.083z"/><path d="M8.267,7.35c0.128,0,0.256-0.049,0.354-0.146c0.195-0.195,0.195-0.512,0-0.707L7.345,5.221  c-0.195-0.195-0.512-0.195-0.707,0s-0.195,0.512,0,0.707l1.275,1.275C8.011,7.301,8.139,7.35,8.267,7.35z"/><path d="M16.087,13.963c-0.195-0.195-0.512-0.195-0.707,0s-0.195,0.512,0,0.707l1.275,1.274c0.098,0.098,0.226,0.146,0.354,0.146  s0.256-0.049,0.354-0.146c0.195-0.195,0.195-0.512,0-0.707L16.087,13.963z"/><path d="M7.913,13.963l-1.275,1.274c-0.195,0.195-0.195,0.512,0,0.707c0.098,0.098,0.226,0.146,0.354,0.146s0.256-0.049,0.354-0.146  L8.62,14.67c0.195-0.195,0.195-0.512,0-0.707S8.108,13.768,7.913,13.963z"/><path d="M16.087,7.203l1.275-1.275c0.195-0.195,0.195-0.512,0-0.707s-0.512-0.195-0.707,0L15.38,6.496  c-0.195,0.195-0.195,0.512,0,0.707c0.098,0.098,0.226,0.146,0.354,0.146S15.989,7.301,16.087,7.203z"/><path d="M12.5,5.303V3.5C12.5,3.224,12.276,3,12,3s-0.5,0.224-0.5,0.5v1.803c0,0.276,0.224,0.5,0.5,0.5S12.5,5.579,12.5,5.303z"/></svg>