<svg width="23" height="23" viewBox="0 0 23 23" fill="none" xmlns="http://www.w3.org/2000/svg">
<path d="M22.0076 11.2879C22.0091 11.0637 21.9646 10.8416 21.8771 10.6358C21.7896 10.43 21.6608 10.245 21.4991 10.0925L11.6799 0.884888L1.86077 10.0925C1.69906 10.245 1.57034 10.43 1.48281 10.6358C1.39527 10.8416 1.35084 11.0637 1.35233 11.2879V20.2694C1.35233 20.6979 1.51973 21.1087 1.8177 21.4117C2.11567 21.7146 2.5198 21.8848 2.9412 21.8848H20.4187C20.8401 21.8848 21.2442 21.7146 21.5422 21.4117C21.8402 21.1087 22.0076 20.6979 22.0076 20.2694V11.2879Z" stroke="#493DDA" stroke-width="1.14286" stroke-linecap="round" stroke-linejoin="round"/>
<path d="M11.6799 13.0002V0.884888" stroke="#493DDA" stroke-width="1.14286" stroke-linecap="round" stroke-linejoin="round"/>
<path d="M1.35229 13.0004H22.0075" stroke="#493DDA" stroke-width="1.14286" stroke-linecap="round" stroke-linejoin="round"/>
<path d="M1.35229 17.4426H6.91332" stroke="#493DDA" stroke-width="1.14286" stroke-linecap="round" stroke-linejoin="round"/>
<path d="M16.4465 17.4426H22.0076" stroke="#493DDA" stroke-width="1.14286" stroke-linecap="round" stroke-linejoin="round"/>
<path d="M6.91333 21.8849V5.35962" stroke="#493DDA" stroke-width="1.14286" stroke-linecap="round" stroke-linejoin="round"/>
<path d="M16.4465 21.8849V5.35962" stroke="#493DDA" stroke-width="1.14286" stroke-linecap="round" stroke-linejoin="round"/>
</svg>
