<svg width="30" height="30" viewBox="0 0 30 30" fill="none" xmlns="http://www.w3.org/2000/svg">
<path d="M5.65385 29.1179C8.26354 29.1179 10.3791 27.0023 10.3791 24.3926C10.3791 21.7829 8.26354 19.6673 5.65385 19.6673C3.04415 19.6673 0.928571 21.7829 0.928571 24.3926C0.928571 27.0023 3.04415 29.1179 5.65385 29.1179Z" stroke="white" stroke-width="1.14286" stroke-linecap="round" stroke-linejoin="round"/>
<path d="M24.3462 23.9255C26.9559 23.9255 29.0715 21.8099 29.0715 19.2002C29.0715 16.5905 26.9559 14.475 24.3462 14.475C21.7365 14.475 19.621 16.5905 19.621 19.2002C19.621 21.8099 21.7365 23.9255 24.3462 23.9255Z" stroke="white" stroke-width="1.14286" stroke-linecap="round" stroke-linejoin="round"/>
<mask id="path-3-outside-1_214_3917" maskUnits="userSpaceOnUse" x="7.80762" y="-0.115234" width="22" height="26" fill="black">
<rect fill="white" x="7.80762" y="-0.115234" width="22" height="26"/>
<path d="M28.4999 19.2005V2.91741C28.499 2.75851 28.4617 2.60193 28.3908 2.45973C28.3198 2.31753 28.2172 2.1935 28.0908 2.0972C27.9644 2.0009 27.8176 1.93489 27.6617 1.90425C27.5058 1.87361 27.3449 1.87917 27.1915 1.92048L10.5761 6.53125C10.3565 6.59037 10.1624 6.71992 10.0236 6.90002C9.88477 7.08011 9.80889 7.30079 9.80762 7.52818V24.3928"/>
</mask>
<path d="M27.3571 19.2005C27.3571 19.8317 27.8687 20.3433 28.4999 20.3433C29.1311 20.3433 29.6428 19.8317 29.6428 19.2005H27.3571ZM28.4999 2.91741H29.6428L29.6428 2.911L28.4999 2.91741ZM27.1915 1.92048L26.8943 0.816904L26.8859 0.819242L27.1915 1.92048ZM10.5761 6.53125L10.8732 7.63484L10.8817 7.63249L10.5761 6.53125ZM9.80762 7.52818L8.66476 7.52176V7.52818H9.80762ZM8.66476 24.3928C8.66476 25.024 9.17643 25.5356 9.80762 25.5356C10.4388 25.5356 10.9505 25.024 10.9505 24.3928H8.66476ZM29.6428 19.2005V2.91741H27.3571V19.2005H29.6428ZM29.6428 2.911C29.6409 2.57723 29.5625 2.24833 29.4135 1.94964L27.3681 2.96982C27.3609 2.95552 27.3572 2.93978 27.3571 2.92381L29.6428 2.911ZM29.4135 1.94964C29.2645 1.65094 29.0489 1.39042 28.7835 1.18814L27.3982 3.00627C27.3855 2.99659 27.3752 2.98412 27.3681 2.96982L29.4135 1.94964ZM28.7835 1.18814C28.518 0.98585 28.2096 0.847191 27.882 0.782836L27.4413 3.02566C27.4257 3.02258 27.4109 3.01595 27.3982 3.00627L28.7835 1.18814ZM27.882 0.782836C27.5545 0.718481 27.2166 0.730147 26.8943 0.816936L27.4886 3.02403C27.4732 3.02819 27.457 3.02874 27.4413 3.02566L27.882 0.782836ZM26.8859 0.819242L10.2705 5.43001L10.8817 7.63249L27.4971 3.02173L26.8859 0.819242ZM10.279 5.4277C9.81774 5.55187 9.41004 5.824 9.11844 6.20229L10.9287 7.59774C10.9148 7.61584 10.8953 7.62887 10.8732 7.63481L10.279 5.4277ZM9.11844 6.20229C8.82684 6.58058 8.66746 7.04413 8.66478 7.52176L10.9505 7.53459C10.9503 7.55745 10.9427 7.57964 10.9287 7.59774L9.11844 6.20229ZM8.66476 7.52818V24.3928H10.9505V7.52818H8.66476Z" fill="white" mask="url(#path-3-outside-1_214_3917)"/>
<path d="M9.80762 12.9697L28.4999 7.77734" stroke="white" stroke-width="1.14286" stroke-linecap="round" stroke-linejoin="round"/>
</svg>
