<svg width="23" height="24" viewBox="0 0 23 24" fill="none" xmlns="http://www.w3.org/2000/svg">
<path d="M18.0716 7.77773C19.8863 7.77773 21.3573 6.30666 21.3573 4.49201C21.3573 2.67736 19.8863 1.2063 18.0716 1.2063C16.257 1.2063 14.7859 2.67736 14.7859 4.49201C14.7859 6.30666 16.257 7.77773 18.0716 7.77773Z" stroke="#000000" stroke-width="1.14286" stroke-linecap="round" stroke-linejoin="round"/>
<path d="M18.0715 11.0635C13.9644 11.0635 13.9644 22.5635 13.9644 22.5635H22.1786C22.1786 22.5635 22.1786 11.0635 18.0715 11.0635Z" stroke="#000000" stroke-width="1.14286" stroke-linecap="round" stroke-linejoin="round"/>
<path d="M4.92878 7.77773C6.74343 7.77773 8.2145 6.30666 8.2145 4.49201C8.2145 2.67736 6.74343 1.2063 4.92878 1.2063C3.11413 1.2063 1.64307 2.67736 1.64307 4.49201C1.64307 6.30666 3.11413 7.77773 4.92878 7.77773Z" stroke="#000000" stroke-width="1.14286" stroke-linecap="round" stroke-linejoin="round"/>
<path d="M4.92868 22.5635C0.821533 22.5635 0.821533 11.0635 0.821533 11.0635H9.03582C9.03582 11.0635 9.03582 22.5635 4.92868 22.5635Z" stroke="#000000" stroke-width="1.14286" stroke-linecap="round" stroke-linejoin="round"/>
</svg>
