<svg width="35" height="28" viewBox="0 0 35 28" fill="none" xmlns="http://www.w3.org/2000/svg">
<path d="M22.8144 1.39884C22.7064 1.25495 22.5371 1.17027 22.3572 1.17027H12.6429C12.4631 1.17027 12.2937 1.25495 12.1858 1.39884L8.71436 6.02741H4.14293C3.34728 6.02741 2.58422 6.34348 2.02161 6.90609C1.459 7.4687 1.14293 8.23176 1.14293 9.02741V23.5988C1.14293 24.3945 1.459 25.1576 2.02161 25.7202C2.58422 26.2828 3.34728 26.5988 4.14293 26.5988H30.8572C31.6529 26.5988 32.4159 26.2828 32.9785 25.7202C33.5411 25.1576 33.8572 24.3945 33.8572 23.5988V9.02741C33.8572 8.23176 33.5411 7.4687 32.9785 6.90609C32.4159 6.34348 31.6529 6.02741 30.8572 6.02741H26.2858L22.8144 1.39884Z" stroke="white" stroke-width="1.14286" stroke-linecap="round" stroke-linejoin="round"/>
<path d="M17.5002 21.1348C20.8336 21.1348 23.5359 18.4325 23.5359 15.0991C23.5359 11.7656 20.8336 9.06334 17.5002 9.06334C14.1667 9.06334 11.4645 11.7656 11.4645 15.0991C11.4645 18.4325 14.1667 21.1348 17.5002 21.1348Z" stroke="white" stroke-width="1.14286" stroke-linecap="round" stroke-linejoin="round"/>
</svg>
