<svg width="27" height="27" viewBox="0 0 27 27" fill="none" xmlns="http://www.w3.org/2000/svg">
<path d="M14.1953 25.7558C13.7497 25.9278 13.256 25.9278 12.8104 25.7558C9.33015 24.3912 6.34185 22.0096 4.23513 18.9216C2.12841 15.8335 1.00103 12.1824 1 8.44417V2.80828C1 2.29813 1.20266 1.80888 1.56338 1.44815C1.92411 1.08742 2.41337 0.884766 2.92351 0.884766H24.0822C24.5923 0.884766 25.0816 1.08742 25.4423 1.44815C25.803 1.80888 26.0057 2.29813 26.0057 2.80828V8.42494C26.0085 12.1664 24.8829 15.8218 22.776 18.9136C20.669 22.0054 17.6786 24.39 14.1953 25.7558Z" stroke="#493DDA" stroke-width="1.14286" stroke-linecap="round" stroke-linejoin="round"/>
<path d="M16.3881 10.5024H10.6176C9.55528 10.5024 8.69409 11.3636 8.69409 12.426V16.273C8.69409 17.3353 9.55528 18.1965 10.6176 18.1965H16.3881C17.4505 18.1965 18.3117 17.3353 18.3117 16.273V12.426C18.3117 11.3636 17.4505 10.5024 16.3881 10.5024Z" stroke="#493DDA" stroke-width="1.14286" stroke-linecap="round" stroke-linejoin="round"/>
<path d="M16.3881 10.5024V8.57887C16.3881 8.19997 16.3135 7.82479 16.1685 7.47473C16.0235 7.12467 15.8109 6.8066 15.543 6.53868C15.2751 6.27076 14.957 6.05823 14.607 5.91323C14.2569 5.76823 13.8817 5.6936 13.5028 5.6936C13.1239 5.6936 12.7487 5.76823 12.3987 5.91323C12.0486 6.05823 11.7306 6.27076 11.4626 6.53868C11.1947 6.8066 10.9822 7.12467 10.8372 7.47473C10.6922 7.82479 10.6176 8.19997 10.6176 8.57887V10.5024" stroke="#493DDA" stroke-width="1.14286" stroke-linecap="round" stroke-linejoin="round"/>
</svg>
