<svg width="17" height="17" viewBox="0 0 17 17" fill="none" xmlns="http://www.w3.org/2000/svg">
<path d="M8.99986 10.7209L5.57129 11.3381L6.14272 7.86377L12.6913 1.33806C12.7975 1.23094 12.9239 1.14591 13.0632 1.08789C13.2025 1.02987 13.3518 1 13.5027 1C13.6536 1 13.803 1.02987 13.9422 1.08789C14.0815 1.14591 14.2079 1.23094 14.3141 1.33806L15.5256 2.54948C15.6327 2.65573 15.7177 2.78213 15.7757 2.9214C15.8338 3.06066 15.8636 3.21004 15.8636 3.36091C15.8636 3.51178 15.8338 3.66116 15.7757 3.80043C15.7177 3.9397 15.6327 4.0661 15.5256 4.17234L8.99986 10.7209Z" stroke="white" stroke-width="1.14286" stroke-linecap="round" stroke-linejoin="round"/>
<path d="M14.1429 11.2923V14.7209C14.1429 15.024 14.0224 15.3147 13.8081 15.529C13.5938 15.7433 13.3031 15.8637 13 15.8637H2.14286C1.83975 15.8637 1.54906 15.7433 1.33474 15.529C1.12041 15.3147 1 15.024 1 14.7209V3.86374C1 3.56064 1.12041 3.26995 1.33474 3.05562C1.54906 2.84129 1.83975 2.72089 2.14286 2.72089H5.57143" stroke="white" stroke-width="1.14286" stroke-linecap="round" stroke-linejoin="round"/>
</svg>
