<svg width="16" height="23" viewBox="0 0 16 23" fill="none" xmlns="http://www.w3.org/2000/svg">
<path d="M15 9.94434L13.6156 20.2421C13.5697 20.6215 13.3858 20.9708 13.0989 21.2233C12.812 21.4757 12.4422 21.6138 12.06 21.611H3.92444C3.54228 21.6138 3.17247 21.4757 2.88557 21.2233C2.59866 20.9708 2.41474 20.6215 2.36889 20.2421L1 9.94434" stroke="#493DDA" stroke-width="1.14286" stroke-linecap="round" stroke-linejoin="round"/>
<path d="M13.8022 6.33541C13.694 6.01344 13.4833 5.73574 13.2025 5.54474C12.9216 5.35374 12.5859 5.25992 12.2467 5.27763H3.67556C3.34944 5.27679 3.03131 5.37846 2.76613 5.56827C2.50095 5.75808 2.30213 6.02644 2.19778 6.33541L1 9.94429H15L13.8022 6.33541Z" stroke="#493DDA" stroke-width="1.14286" stroke-linecap="round" stroke-linejoin="round"/>
<path d="M10.3337 5.2778V2.94447C10.3337 2.53191 10.1698 2.13625 9.87805 1.84453C9.58632 1.5528 9.19066 1.38892 8.7781 1.38892H7.22255C6.80999 1.38892 6.41433 1.5528 6.1226 1.84453C5.83088 2.13625 5.66699 2.53191 5.66699 2.94447V5.2778" stroke="#493DDA" stroke-width="1.14286" stroke-linecap="round" stroke-linejoin="round"/>
</svg>
