<svg width="18" height="24" viewBox="0 0 18 24" fill="none" xmlns="http://www.w3.org/2000/svg">
<path d="M16.8093 13.4165C16.9893 13.9327 17.043 14.4845 16.9657 15.0256C16.8883 15.5668 16.6824 16.0815 16.365 16.5266C16.0488 16.9706 15.631 17.3326 15.1465 17.5823C14.6619 17.832 14.1247 17.9622 13.5796 17.962H4.42039C3.87529 17.9622 3.33805 17.832 2.85351 17.5823C2.36897 17.3326 1.95119 16.9706 1.63503 16.5266C1.31765 16.0815 1.11166 15.5668 1.03435 15.0256C0.957042 14.4845 1.01067 13.9327 1.19074 13.4165L4.45457 4.10352C4.78583 3.16249 5.40099 2.34747 6.21516 1.77094C7.02933 1.1944 8.00237 0.884766 9 0.884766C9.99763 0.884766 10.9707 1.1944 11.7848 1.77094C12.599 2.34747 13.2142 3.16249 13.5454 4.10352L16.8093 13.4165Z" stroke="#000000" stroke-width="1.14286" stroke-linecap="round" stroke-linejoin="round"/>
<path d="M6.43677 11.1267L8.99998 13.6899V23.0884" stroke="#000000" stroke-width="1.14286" stroke-linecap="round" stroke-linejoin="round"/>
<path d="M9 13.6899L11.5632 11.1267" stroke="#000000" stroke-width="1.14286" stroke-linecap="round" stroke-linejoin="round"/>
</svg>
