<svg width="27" height="27" viewBox="0 0 27 27" fill="none" xmlns="http://www.w3.org/2000/svg">
<path d="M24.1429 5.7063H2.92857C1.86345 5.7063 1 6.56975 1 7.63487V24.0277C1 25.0928 1.86345 25.9563 2.92857 25.9563H24.1429C25.208 25.9563 26.0714 25.0928 26.0714 24.0277V7.63487C26.0714 6.56975 25.208 5.7063 24.1429 5.7063Z" stroke="#000000" stroke-width="1.14286" stroke-linecap="round" stroke-linejoin="round"/>
<path d="M19.3215 10.5276H7.7501C6.68498 10.5276 5.82153 11.391 5.82153 12.4562V19.2062C5.82153 20.2713 6.68498 21.1347 7.7501 21.1347H19.3215C20.3867 21.1347 21.2501 20.2713 21.2501 19.2062V12.4562C21.2501 11.391 20.3867 10.5276 19.3215 10.5276Z" stroke="#000000" stroke-width="1.14286" stroke-linecap="round" stroke-linejoin="round"/>
<path d="M9.67847 0.884766L13.5356 5.70619L17.3928 0.884766" stroke="#000000" stroke-width="1.14286" stroke-linecap="round" stroke-linejoin="round"/>
</svg>
