<?xml version="1.0" encoding="iso-8859-1"?>
<!-- Uploaded to: SVG Repo, www.svgrepo.com, Generator: SVG Repo Mixer Tools -->
<!DOCTYPE svg PUBLIC "-//W3C//DTD SVG 1.1//EN" "http://www.w3.org/Graphics/SVG/1.1/DTD/svg11.dtd">
<svg fill="#000000" version="1.1" id="Capa_1" xmlns="http://www.w3.org/2000/svg" xmlns:xlink="http://www.w3.org/1999/xlink" 
	 width="800px" height="800px" viewBox="0 0 496.525 496.525"
	 xml:space="preserve">
<g>
	<g>
		<path d="M319.893,347.672l19.582-200.51c0.365-3.735-0.969-7.438-3.632-10.083c-2.218-2.203-5.168-3.46-8.246-3.601
			c8.621-7.92,15.311-17.715,19.608-28.813c7.417-19.15,6.933-40.042-1.364-58.827c-8.297-18.786-23.414-33.216-42.563-40.631
			C294.357,1.752,285.02,0,275.526,0c-15.344,0-30.205,4.542-42.978,13.134c-13.083,8.801-23.019,21.25-28.73,35.999
			c-7.417,19.149-6.933,40.042,1.364,58.828c6.522,14.768,17.271,26.826,30.868,34.919l-7.631,0.797
			c-6,0.627-10.695,5.447-11.164,11.461l-8.754,112.312l-69.111,12.082c-4.293,0.75-7.886,3.684-9.481,7.739L60.251,464.485
			c-1.301,3.312-1.13,7.021,0.471,10.197c1.601,3.178,4.479,5.522,7.915,6.446l55.61,14.965c1.084,0.292,2.175,0.432,3.252,0.432
			c5.038,0,9.731-3.063,11.641-7.958l49.074-125.776l119.638-3.84C314.13,358.748,319.282,353.922,319.893,347.672z M228.053,97.862
			c-5.599-12.678-5.926-26.776-0.92-39.7c7.68-19.834,27.128-33.161,48.395-33.161c6.394,0,12.692,1.185,18.724,3.52
			c12.922,5.004,23.123,14.741,28.722,27.418c5.599,12.676,5.926,26.774,0.92,39.698c-7.682,19.837-27.127,33.165-48.389,33.165
			c-0.001,0-0.003,0-0.004,0c-6.397-0.001-12.697-1.186-18.727-3.521C243.851,120.277,233.651,110.539,228.053,97.862z
			 M179.167,338.068c-5.001,0.159-9.425,3.287-11.245,7.948l-47.999,123.024l-31.291-8.42l61.977-157.674l71.753-12.543
			c5.624-0.983,9.866-5.65,10.31-11.343l8.699-111.602l71.733-7.491l-17.026,174.346L179.167,338.068z"/>
		<path d="M363.241,230.252c-0.228-0.102-0.458-0.198-0.688-0.294l-0.157-0.065c-6.321-2.766-13.689,0.118-16.458,6.44
			c-2.768,6.324,0.114,13.695,6.438,16.464c0.192,0.084,0.388,0.166,0.583,0.247l0.112,0.047
			c40.064,17.899,64.002,60.821,58.213,104.381c-3.511,26.403-17.129,49.887-38.346,66.125
			c-21.216,16.237-47.442,23.243-73.845,19.737c-30.273-4.024-56.688-21.364-72.466-47.567c-1.515-2.519-2.957-5.175-4.286-7.896
			c-3.031-6.202-10.515-8.771-16.718-5.743c-6.203,3.03-8.774,10.517-5.744,16.719c1.646,3.369,3.438,6.668,5.328,9.812
			c19.723,32.756,52.744,54.428,90.592,59.458c5.562,0.739,11.08,1.1,16.546,1.099c61.609-0.005,115.384-45.742,123.72-108.447
			C443.306,306.312,413.371,252.648,363.241,230.252z"/>
	</g>
</g>
</svg>