<svg width="24" height="20" viewBox="0 0 24 20" fill="none" xmlns="http://www.w3.org/2000/svg">
<path d="M12.15 18.8846C13.391 18.8846 14.3971 17.8786 14.3971 16.6375C14.3971 15.3965 13.391 14.3904 12.15 14.3904C10.9089 14.3904 9.90283 15.3965 9.90283 16.6375C9.90283 17.8786 10.9089 18.8846 12.15 18.8846Z" stroke="#000000" stroke-width="1.14286" stroke-linecap="round" stroke-linejoin="round"/>
<path d="M7.91284 11.5943C8.47064 11.0217 9.13747 10.5665 9.874 10.2558C10.6105 9.94502 11.4019 9.78491 12.2013 9.78491C13.0007 9.78491 13.792 9.94502 14.5285 10.2558C15.265 10.5665 15.9319 11.0217 16.4897 11.5943" stroke="#000000" stroke-width="1.14286" stroke-linecap="round" stroke-linejoin="round"/>
<path d="M4.19067 8.69533C5.23484 7.64508 6.47634 6.81161 7.84377 6.24287C9.21119 5.67414 10.6776 5.38135 12.1586 5.38135C13.6395 5.38135 15.1059 5.67414 16.4733 6.24287C17.8408 6.81161 19.0823 7.64508 20.1264 8.69533" stroke="#000000" stroke-width="1.14286" stroke-linecap="round" stroke-linejoin="round"/>
<path d="M1 5.5049C2.46395 4.04019 4.20215 2.87827 6.11529 2.08553C8.02843 1.29279 10.079 0.884766 12.1499 0.884766C14.2208 0.884766 16.2714 1.29279 18.1845 2.08553C20.0976 2.87827 21.8358 4.04019 23.2998 5.5049" stroke="#000000" stroke-width="1.14286" stroke-linecap="round" stroke-linejoin="round"/>
</svg>
